<?xml version="1.0" encoding="UTF-8"?>
<!DOCTYPE svg PUBLIC "-//W3C//DTD SVG 1.1//EN" "http://www.w3.org/Graphics/SVG/1.1/DTD/svg11.dtd">
<svg xmlns="http://www.w3.org/2000/svg" version="1.1" width="1300px" height="1300px" style="shape-rendering:geometricPrecision; text-rendering:geometricPrecision; image-rendering:optimizeQuality; fill-rule:evenodd; clip-rule:evenodd" xmlns:xlink="http://www.w3.org/1999/xlink">
<g><path style="opacity:0.987" fill="#231f20" d="M 443.5,43.5 C 481.908,40.4159 518.575,46.9159 553.5,63C 584.927,77.3662 613.26,96.1995 638.5,119.5C 690.15,83.7883 747.483,66.9549 810.5,69C 850.035,72.8408 885.702,86.5075 917.5,110C 964.555,146.42 997.722,192.92 1017,249.5C 1027.89,296.816 1020.23,340.816 994,381.5C 986.617,391.717 977.784,400.383 967.5,407.5C 965.5,407.5 964.5,406.5 964.5,404.5C 977.447,345.893 956.78,303.727 902.5,278C 896.579,275.471 890.579,273.137 884.5,271C 850.264,262.619 815.931,254.619 781.5,247C 738.572,235.207 700.239,215.04 666.5,186.5C 612.299,216.871 579.133,262.537 567,323.5C 592.403,300.385 622.236,286.219 656.5,281C 686.687,276.017 716.02,279.017 744.5,290C 773.233,304.067 793.733,325.901 806,355.5C 816.49,381.926 820.156,409.26 817,437.5C 810.274,463.474 795.441,483.307 772.5,497C 768.605,498.781 764.605,500.281 760.5,501.5C 757.754,500.904 756.92,499.237 758,496.5C 773.797,475.352 774.463,453.685 760,431.5C 755.242,424.738 749.742,418.571 743.5,413C 723.607,399.774 704.274,385.774 685.5,371C 677.241,363.579 669.907,355.412 663.5,346.5C 633.35,347.794 610.516,361.461 595,387.5C 574.777,432.109 583.61,469.942 621.5,501C 653.66,521.496 684.993,543.163 715.5,566C 742.444,588.926 764.944,615.426 783,645.5C 813.422,700.453 821.422,758.453 807,819.5C 788.276,877.556 750.11,916.39 692.5,936C 619.548,953.129 559.715,932.629 513,874.5C 480.497,826.663 473.831,775.33 493,720.5C 515.216,666.28 554.716,632.113 611.5,618C 628.9,616.112 640.733,623.278 647,639.5C 650.692,657.616 644.192,670.45 627.5,678C 581.142,689.359 553.642,718.526 545,765.5C 541.715,817.496 563.881,853.663 611.5,874C 628.922,880.573 646.589,881.24 664.5,876C 715.206,862.713 744.372,830.213 752,778.5C 754.223,723.311 736.557,675.645 699,635.5C 681.879,618.54 663.379,603.373 643.5,590C 625.338,577.751 607.004,565.751 588.5,554C 555.799,528.621 532.299,496.455 518,457.5C 486.969,370.42 496.802,288.42 547.5,211.5C 547,211.167 546.5,210.833 546,210.5C 526.89,216.486 507.39,220.652 487.5,223C 449.846,225.256 412.179,227.256 374.5,229C 346.52,232.316 321.853,242.983 300.5,261C 277.038,285.05 266.871,313.883 270,347.5C 269.439,348.022 268.772,348.355 268,348.5C 265.384,346.888 263.05,344.888 261,342.5C 236.935,308.234 227.935,270.234 234,228.5C 236.122,210.801 241.455,194.134 250,178.5C 282.81,122.685 328.976,82.1853 388.5,57C 406.467,50.4242 424.801,45.9242 443.5,43.5 Z"/></g>
<g><path style="opacity:1" fill="#a0cf33" d="M 444.5,45.5 C 491.649,42.7872 535.649,53.2872 576.5,77C 598.692,89.8495 619.192,105.016 638,122.5C 689.44,86.5782 746.607,69.4115 809.5,71C 849.035,74.8408 884.702,88.5075 916.5,112C 963.176,148.134 996.009,194.301 1015,250.5C 1026.73,302.214 1016.39,348.88 984,390.5C 978.912,396.62 973.079,401.454 966.5,405C 979.064,357.357 965.73,318.69 926.5,289C 912.898,279.866 898.231,272.866 882.5,268C 850.563,260.412 818.563,253.079 786.5,246C 742.32,234.58 702.987,214.247 668.5,185C 667.167,184.333 665.833,184.333 664.5,185C 607.955,217.562 574.121,266.062 563,330.5C 586.429,306.864 614.596,291.697 647.5,285C 684.296,276.526 719.63,280.526 753.5,297C 785.957,318.179 805.79,348.012 813,386.5C 823.297,424.155 814.797,456.655 787.5,484C 779.414,490.711 770.414,495.878 760.5,499.5C 779.784,466.081 774.45,436.581 744.5,411C 724.607,397.774 705.274,383.774 686.5,369C 678.128,360.897 670.461,352.23 663.5,343C 621.736,347.425 595.236,369.925 584,410.5C 577.516,448.716 589.682,479.55 620.5,503C 652.66,523.496 683.993,545.163 714.5,568C 753.974,600.803 782.474,641.303 800,689.5C 814.807,733.148 816.141,777.148 804,821.5C 777.56,895.268 725.226,934.934 647,940.5C 580.296,937.67 531.296,907.003 500,848.5C 473.274,784.965 481.274,726.298 524,672.5C 548.715,643.971 579.715,626.305 617,619.5C 638.647,622.446 647.981,634.78 645,656.5C 641.925,665.909 635.759,672.409 626.5,676C 582.342,686.824 554.842,714.324 544,758.5C 537.309,804.61 553.142,840.777 591.5,867C 613.334,880.571 636.668,884.571 661.5,879C 727.526,861.154 758.359,817.987 754,749.5C 748.993,705.164 731.327,666.83 701,634.5C 683.731,616.969 664.898,601.469 644.5,588C 624.833,575 605.167,562 585.5,549C 554.602,523.414 532.436,491.581 519,453.5C 492.231,377.625 497.898,304.292 536,233.5C 540.837,225.156 546.17,217.156 552,209.5C 552.982,208.241 553.315,206.908 553,205.5C 524.081,215.793 494.248,221.627 463.5,223C 433.462,223.634 403.462,224.967 373.5,227C 346.076,230.354 321.742,240.688 300.5,258C 275.631,282.267 264.798,311.767 268,346.5C 249.461,325.743 238.794,301.409 236,273.5C 231.482,240.451 236.816,209.117 252,179.5C 277.406,137.427 310.906,103.26 352.5,77C 381.119,60.1836 411.785,49.6836 444.5,45.5 Z"/></g>
<g><path style="opacity:0.987" fill="#231f20" d="M 348.5,473.5 C 349.552,473.351 350.552,473.517 351.5,474C 372.406,494.405 392.74,515.238 412.5,536.5C 402.22,549.286 391.72,561.953 381,574.5C 315.945,666.493 298.945,766.826 330,875.5C 364.167,976.001 430.333,1046.5 528.5,1087C 629.177,1123.28 726.177,1115.28 819.5,1063C 917.821,1001.55 972.321,912.72 983,796.5C 987.33,695.786 954.83,609.286 885.5,537C 905.459,516.04 925.792,495.374 946.5,475C 947.833,474.333 949.167,474.333 950.5,475C 1021.04,546.269 1061.38,632.102 1071.5,732.5C 1087.84,732.333 1104.17,732.5 1120.5,733C 1121.16,746.927 1121.5,760.927 1121.5,775C 1121.5,789.073 1121.16,803.073 1120.5,817C 1104.17,817.5 1087.84,817.667 1071.5,817.5C 1062.89,902.511 1031.89,978.011 978.5,1044C 991.667,1057.17 1004.83,1070.33 1018,1083.5C 1018.67,1084.5 1018.67,1085.5 1018,1086.5C 998.833,1105.67 979.667,1124.83 960.5,1144C 959.5,1144.67 958.5,1144.67 957.5,1144C 944.333,1130.83 931.167,1117.67 918,1104.5C 851.993,1157.9 776.493,1188.9 691.5,1197.5C 691.667,1216.5 691.5,1235.5 691,1254.5C 677.073,1255.16 663.073,1255.5 649,1255.5C 634.927,1255.5 620.927,1255.16 607,1254.5C 606.5,1235.5 606.333,1216.5 606.5,1197.5C 521.638,1188.68 446.304,1157.68 380.5,1104.5C 369.347,1115.15 358.347,1125.99 347.5,1137C 346.167,1137.67 344.833,1137.67 343.5,1137C 324.667,1118.17 305.833,1099.33 287,1080.5C 286.333,1079.17 286.333,1077.83 287,1076.5C 298.014,1065.65 308.848,1054.65 319.5,1043.5C 266.299,977.627 235.299,902.293 226.5,817.5C 210.497,817.667 194.497,817.5 178.5,817C 177.837,803.073 177.504,789.073 177.5,775C 177.504,760.927 177.837,746.927 178.5,733C 194.497,732.5 210.497,732.333 226.5,732.5C 237.392,631.734 278.059,545.4 348.5,473.5 Z"/></g>
<g><path style="opacity:1" fill="#a0cf33" d="M 348.5,476.5 C 349.552,476.351 350.552,476.517 351.5,477C 371.347,496.68 391.014,516.514 410.5,536.5C 330.929,620.733 300.096,720.4 318,835.5C 341.436,948.583 404.936,1030.42 508.5,1081C 600.538,1120.92 692.871,1121.59 785.5,1083C 890.766,1033.35 955.599,951.516 980,837.5C 998.82,721.651 967.987,621.484 887.5,537C 907.5,517 927.5,497 947.5,477C 948.167,476.333 948.833,476.333 949.5,477C 1019.33,548.541 1059.33,634.374 1069.5,734.5C 1086.17,734.5 1102.83,734.5 1119.5,734.5C 1119.5,761.5 1119.5,788.5 1119.5,815.5C 1102.83,815.5 1086.17,815.5 1069.5,815.5C 1061.11,901.397 1029.78,977.564 975.5,1044C 989.167,1057.67 1002.83,1071.33 1016.5,1085C 997.333,1104.17 978.167,1123.33 959,1142.5C 945.333,1128.83 931.667,1115.17 918,1101.5C 851.577,1155.77 775.41,1187.11 689.5,1195.5C 689.5,1214.83 689.5,1234.17 689.5,1253.5C 662.5,1253.5 635.5,1253.5 608.5,1253.5C 608.5,1234.17 608.5,1214.83 608.5,1195.5C 522.778,1186.95 446.778,1155.61 380.5,1101.5C 369.014,1112.49 357.681,1123.65 346.5,1135C 345.833,1135.67 345.167,1135.67 344.5,1135C 325.653,1116.32 306.986,1097.49 288.5,1078.5C 299.833,1066.83 311.167,1055.17 322.5,1043.5C 268.387,977.225 237.053,901.225 228.5,815.5C 212.167,815.5 195.833,815.5 179.5,815.5C 179.5,788.5 179.5,761.5 179.5,734.5C 195.833,734.5 212.167,734.5 228.5,734.5C 238.932,634.325 278.932,548.325 348.5,476.5 Z"/></g>
<g><path style="opacity:0.981" fill="#231f20" d="M 416.5,609.5 C 444.518,606.813 460.185,619.313 463.5,647C 460.144,674.855 444.478,687.189 416.5,684C 395.406,677.217 385.906,662.717 388,640.5C 391.469,624.535 400.969,614.201 416.5,609.5 Z"/></g>
<g><path style="opacity:0.986" fill="#231f20" d="M 864.5,609.5 C 880.974,607.15 893.807,612.817 903,626.5C 944.277,701.057 953.277,779.39 930,861.5C 902.491,943.678 849.658,1003.51 771.5,1041C 690.775,1075.56 609.775,1076.22 528.5,1043C 442.078,1001.24 387.245,933.737 364,840.5C 353.6,794.163 354.1,747.996 365.5,702C 366.5,701.333 367.5,701.333 368.5,702C 385.403,718.029 405.57,726.529 429,727.5C 415.903,809.33 438.07,879.83 495.5,939C 557.817,994.139 629.483,1011.14 710.5,990C 786.938,966.561 838.104,917.061 864,841.5C 882.583,776.833 874.917,715.5 841,657.5C 834.201,634.1 842.034,618.1 864.5,609.5 Z"/></g>
<g><path style="opacity:1" fill="#a0cf33" d="M 417.5,611.5 C 446.485,609.989 460.985,623.655 461,652.5C 455.192,674.954 440.692,684.787 417.5,682C 397.667,675.821 388.5,662.321 390,641.5C 393.136,625.868 402.303,615.868 417.5,611.5 Z"/></g>
<g><path style="opacity:1" fill="#a0cf33" d="M 865.5,611.5 C 879.14,609.574 890.307,613.907 899,624.5C 942.406,700.09 951.74,779.756 927,863.5C 892.946,959.886 827.113,1023.39 729.5,1054C 645.674,1076.79 566.674,1065.79 492.5,1021C 420.249,972.402 376.749,904.902 362,818.5C 356.23,779.842 357.896,741.509 367,703.5C 383.565,720.306 403.731,728.639 427.5,728.5C 413.812,810.925 436.145,881.758 494.5,941C 557.518,996.412 629.851,1013.41 711.5,992C 791.035,967.132 843.202,914.965 868,835.5C 884.304,772.33 875.97,712.663 843,656.5C 836.715,634.402 844.215,619.402 865.5,611.5 Z"/></g>
</svg>
